<svg width="79" height="18" viewBox="0 0 79 18" fill="none" xmlns="http://www.w3.org/2000/svg">
<path d="M7.89773 17.3089C6.27746 17.3089 4.88376 16.9657 3.71662 16.2791C2.55634 15.5857 1.66383 14.6245 1.03906 13.3956C0.421165 12.1667 0.112216 10.7524 0.112216 9.1527C0.112216 7.53243 0.424598 6.11127 1.04936 4.8892C1.68099 3.66027 2.57694 2.70253 3.73722 2.01598C4.89749 1.32256 6.27746 0.975852 7.87713 0.975852C9.2571 0.975852 10.4654 1.22644 11.5021 1.72763C12.5388 2.22881 13.3593 2.93253 13.9634 3.83878C14.5676 4.74503 14.9006 5.80919 14.9624 7.03125H10.8224C10.7057 6.24171 10.3968 5.60665 9.8956 5.12607C9.40128 4.63861 8.75249 4.39489 7.94922 4.39489C7.26953 4.39489 6.67566 4.58026 6.16761 4.95099C5.66643 5.31487 5.27509 5.84695 4.99361 6.54723C4.71212 7.24751 4.57138 8.09541 4.57138 9.09091C4.57138 10.1001 4.70869 10.9583 4.98331 11.6655C5.2648 12.3726 5.65956 12.9116 6.16761 13.2823C6.67566 13.6531 7.26953 13.8384 7.94922 13.8384C8.4504 13.8384 8.9001 13.7354 9.2983 13.5295C9.70336 13.3235 10.0363 13.0249 10.2972 12.6335C10.565 12.2353 10.7401 11.7582 10.8224 11.2021H14.9624C14.8937 12.4104 14.5642 13.4746 13.9737 14.3945C13.3902 15.3076 12.5835 16.0217 11.5536 16.5366C10.5238 17.0515 9.30516 17.3089 7.89773 17.3089ZM24.9182 17.3089C23.3186 17.3089 21.9352 16.9691 20.768 16.2894C19.6077 15.6029 18.7118 14.6486 18.0802 13.4265C17.4485 12.1976 17.1327 10.773 17.1327 9.1527C17.1327 7.5187 17.4485 6.09067 18.0802 4.86861C18.7118 3.63968 19.6077 2.68537 20.768 2.00568C21.9352 1.31913 23.3186 0.975852 24.9182 0.975852C26.5179 0.975852 27.8979 1.31913 29.0582 2.00568C30.2253 2.68537 31.1247 3.63968 31.7563 4.86861C32.3879 6.09067 32.7037 7.5187 32.7037 9.1527C32.7037 10.773 32.3879 12.1976 31.7563 13.4265C31.1247 14.6486 30.2253 15.6029 29.0582 16.2894C27.8979 16.9691 26.5179 17.3089 24.9182 17.3089ZM24.9388 13.9105C25.6666 13.9105 26.2742 13.7045 26.7616 13.2926C27.2491 12.8738 27.6164 12.304 27.8635 11.5831C28.1176 10.8622 28.2446 10.0418 28.2446 9.1218C28.2446 8.20182 28.1176 7.38139 27.8635 6.66051C27.6164 5.93963 27.2491 5.36979 26.7616 4.95099C26.2742 4.5322 25.6666 4.3228 24.9388 4.3228C24.2042 4.3228 23.5863 4.5322 23.0851 4.95099C22.5908 5.36979 22.2166 5.93963 21.9626 6.66051C21.7155 7.38139 21.5919 8.20182 21.5919 9.1218C21.5919 10.0418 21.7155 10.8622 21.9626 11.5831C22.2166 12.304 22.5908 12.8738 23.0851 13.2926C23.5863 13.7045 24.2042 13.9105 24.9388 13.9105ZM49.7938 1.18182L44.2636 17H39.3204L33.7902 1.18182H38.4244L41.7096 12.4996H41.8744L45.1492 1.18182H49.7938ZM58.7378 17.3089C57.1107 17.3089 55.7101 16.9794 54.5361 16.3203C53.369 15.6544 52.4696 14.7138 51.838 13.4986C51.2064 12.2765 50.8905 10.8313 50.8905 9.163C50.8905 7.53587 51.2064 6.10784 51.838 4.87891C52.4696 3.64998 53.3587 2.69223 54.5052 2.00568C55.6586 1.31913 57.0112 0.975852 58.5628 0.975852C59.6063 0.975852 60.5778 1.14406 61.4772 1.48047C62.3834 1.81001 63.173 2.30776 63.8458 2.97372C64.5255 3.63968 65.0541 4.47727 65.4317 5.48651C65.8093 6.48887 65.9981 7.66288 65.9981 9.00852V10.2134H52.6412V7.49467H61.8685C61.8685 6.86304 61.7312 6.3035 61.4566 5.81605C61.182 5.3286 60.8009 4.94756 60.3135 4.67294C59.8329 4.39145 59.2733 4.25071 58.6349 4.25071C57.9689 4.25071 57.3785 4.40518 56.8635 4.71413C56.3555 5.01622 55.9573 5.42472 55.6689 5.93963C55.3806 6.44768 55.233 7.01409 55.2261 7.63885V10.2237C55.2261 11.0064 55.3703 11.6826 55.6586 12.2525C55.9539 12.8223 56.3692 13.2617 56.9047 13.5707C57.4403 13.8796 58.0753 14.0341 58.8099 14.0341C59.2974 14.0341 59.7436 13.9654 60.1487 13.8281C60.5538 13.6908 60.9005 13.4848 61.1888 13.2102C61.4772 12.9356 61.6969 12.5992 61.8479 12.201L65.9055 12.4688C65.6995 13.4437 65.2773 14.295 64.6388 15.0227C64.0071 15.7436 63.1901 16.3066 62.1878 16.7116C61.1923 17.1098 60.0423 17.3089 58.7378 17.3089ZM68.8611 17V1.18182H73.1143V3.94176H73.279C73.5674 2.95999 74.0514 2.21851 74.7311 1.71733C75.4108 1.20928 76.1934 0.955255 77.0791 0.955255C77.2988 0.955255 77.5357 0.968986 77.7897 0.996448C78.0437 1.02391 78.2668 1.06167 78.4591 1.10973V5.00249C78.2531 4.9407 77.9682 4.88577 77.6043 4.83771C77.2404 4.78965 76.9075 4.76562 76.6054 4.76562C75.96 4.76562 75.3833 4.90637 74.8753 5.18786C74.3741 5.46248 73.9759 5.84695 73.6807 6.34126C73.3923 6.83558 73.2481 7.40542 73.2481 8.05078V17H68.8611Z" fill="black"/>
</svg>
